<?xml version="1.0" encoding="utf-8"?>
<!-- Generator: Adobe Illustrator 22.1.0, SVG Export Plug-In . SVG Version: 6.00 Build 0)  -->
<svg version="1.1" id="Layer_1" xmlns="http://www.w3.org/2000/svg" xmlns:xlink="http://www.w3.org/1999/xlink" x="0px" y="0px"
	 viewBox="0 0 48 47.9" style="enable-background:new 0 0 48 47.9;" xml:space="preserve">
<style type="text/css">
	.st0{fill:#F76262;stroke:#F76262;stroke-width:2;stroke-miterlimit:10;}
</style>
<g id="jSQkjJ_2_">
	<g>
		<path class="st0" d="M5.2,36.8c0-0.4,0.2-0.7,0.4-1c0.9-1.1,1.7-2.3,2.6-3.4c0.2-0.3,0.3-0.6,0.1-0.9c-0.3-0.6-0.6-1.3-0.8-2
			c-0.1-0.3-0.3-0.5-0.6-0.5c-1.5-0.2-3-0.4-4.4-0.6C1.3,28.3,1,27.9,1,26.8c0-1.9,0-3.9,0-5.8c0-1.1,0.3-1.5,1.4-1.6
			c1.5-0.2,3.1-0.5,4.6-0.7c0.3,0,0.5-0.2,0.5-0.5C7.7,17.6,8,17,8.3,16.4c0.2-0.3,0.1-0.5-0.1-0.8c-0.9-1.2-1.9-2.4-2.8-3.6
			c-0.5-0.6-0.5-1,0-1.6c1.4-1.8,3-3.4,4.7-4.8c0.9-0.7,1.2-0.7,2.1,0c1.1,0.9,2.3,1.7,3.4,2.6c0.3,0.2,0.5,0.3,0.9,0.1
			c0.6-0.3,1.2-0.5,1.8-0.7c0.3-0.1,0.4-0.2,0.5-0.6c0.2-1.6,0.4-3.1,0.7-4.7C19.7,1.2,20,1,21,1c2,0,4,0,6.1,0
			c0.9,0,1.3,0.3,1.4,1.2C28.7,3.8,29,5.4,29.2,7c0,0.3,0.2,0.4,0.5,0.5c0.6,0.2,1.2,0.5,1.8,0.7c0.3,0.2,0.6,0.1,0.8-0.1
			c1.2-0.9,2.4-1.8,3.6-2.7c0.8-0.6,1.2-0.5,1.9,0.1c1.4,1.3,2.8,2.6,4.1,4.1c0.2,0.2,0.3,0.4,0.5,0.6c0.5,0.6,0.5,1.1,0,1.7
			c-0.9,1.2-1.8,2.4-2.7,3.5c-0.2,0.3-0.3,0.5-0.1,0.9c0.3,0.6,0.6,1.3,0.8,1.9c0.1,0.3,0.3,0.5,0.7,0.6c1.5,0.2,2.9,0.5,4.4,0.7
			c1.2,0.2,1.5,0.5,1.5,1.7c0,1.9,0,3.9,0,5.8c0,1-0.4,1.4-1.3,1.5c-1.5,0.2-3.1,0.5-4.6,0.7c-0.3,0-0.5,0.2-0.6,0.5
			c-0.2,0.7-0.5,1.3-0.8,1.9c-0.1,0.3-0.1,0.4,0.1,0.7c0.9,1.2,1.8,2.4,2.8,3.5c0.6,0.8,0.7,1.2,0,2c-1.3,1.6-2.8,3.1-4.4,4.5
			c-1,0.9-1.4,0.9-2.5,0c-1.1-0.8-2.1-1.6-3.2-2.5c-0.3-0.3-0.6-0.3-1-0.1c-0.5,0.3-1,0.5-1.6,0.7c-0.4,0.1-0.6,0.4-0.6,0.8
			c-0.2,1.6-0.4,3.1-0.7,4.7c-0.2,0.9-0.5,1.1-1.4,1.1c-2.1,0-4.1,0-6.2,0c-0.9,0-1.2-0.2-1.4-1.2c-0.2-1.5-0.5-3-0.7-4.5
			c-0.1-0.5-0.2-0.8-0.8-1c-0.5-0.2-1.1-0.4-1.6-0.7c-0.3-0.1-0.5-0.1-0.8,0.1c-1.2,0.9-2.5,1.9-3.7,2.8c-0.7,0.5-1.1,0.5-1.8-0.1
			c-1.5-1.4-3-2.7-4.3-4.3C5.6,37.8,5.2,37.4,5.2,36.8z M24,31.5c4.2,0,7.6-3.3,7.6-7.5c0-4.3-3.3-7.5-7.6-7.6
			c-3.9-0.1-7.6,3.2-7.6,7.6C16.4,28.2,19.8,31.5,24,31.5z"/>
	</g>
</g>
</svg>
